<svg width="364" height="150" viewBox="0 0 364 150" fill="none" xmlns="http://www.w3.org/2000/svg">
<path d="M94.6612 51.3188H94.5675V38.9588C94.5675 29.5238 86.9174 21.8738 77.4825 21.8738C68.0475 21.8738 60.3975 29.5238 60.3975 38.9588V51.3188H44.8162C35.3812 51.3188 27.7312 58.9688 27.7312 68.4038C27.7312 77.8388 35.3812 85.4888 44.8162 85.4888H60.3975V98.5463C60.3975 107.981 68.0475 115.631 77.4825 115.631C86.9174 115.631 94.5675 107.981 94.5675 98.5463V85.4888H94.6612V51.3188Z" fill="#003F8C" stroke="#231F20" stroke-width="2" stroke-miterlimit="10"/>
<path d="M127.432 68.7187C127.432 78.0374 119.876 85.5937 110.557 85.5937H94.6199V51.8474H110.557C119.88 51.8437 127.432 59.3999 127.432 68.7187Z" fill="#A5BEFE" stroke="#231F20" stroke-width="2" stroke-miterlimit="10"/>
<path d="M61.8037 68.7151C61.8037 59.3963 69.36 51.8401 78.6787 51.8401H94.6162V85.5901H78.6787C69.36 85.5901 61.8037 78.0338 61.8037 68.7151Z" fill="white" stroke="#231F20" stroke-width="2" stroke-miterlimit="10"/>
<path d="M144.988 82V56.8H155.896C158.152 56.8 160.096 57.172 161.728 57.916C163.36 58.636 164.62 59.68 165.508 61.048C166.396 62.416 166.84 64.048 166.84 65.944C166.84 67.816 166.396 69.436 165.508 70.804C164.62 72.172 163.36 73.228 161.728 73.972C160.096 74.692 158.152 75.052 155.896 75.052H148.228L150.82 72.424V82H144.988ZM150.82 73.072L148.228 70.3H155.572C157.372 70.3 158.716 69.916 159.604 69.148C160.492 68.38 160.936 67.312 160.936 65.944C160.936 64.552 160.492 63.472 159.604 62.704C158.716 61.936 157.372 61.552 155.572 61.552H148.228L150.82 58.78V73.072ZM188.284 56.8H194.116V82H188.284V56.8ZM176.836 82H171.004V56.8H176.836V82ZM188.716 71.668H176.404V66.736H188.716V71.668ZM196.766 82L207.998 56.8H213.758L225.026 82H218.906L209.69 59.752H211.994L202.742 82H196.766ZM202.382 76.6L203.93 72.172H216.89L218.474 76.6H202.382ZM227.64 82V56.8H238.548C240.804 56.8 242.748 57.172 244.38 57.916C246.012 58.636 247.272 59.68 248.16 61.048C249.048 62.416 249.492 64.048 249.492 65.944C249.492 67.816 249.048 69.436 248.16 70.804C247.272 72.148 246.012 73.18 244.38 73.9C242.748 74.62 240.804 74.98 238.548 74.98H230.88L233.472 72.424V82H227.64ZM243.66 82L237.36 72.856H243.588L249.96 82H243.66ZM233.472 73.072L230.88 70.336H238.224C240.024 70.336 241.368 69.952 242.256 69.184C243.144 68.392 243.588 67.312 243.588 65.944C243.588 64.552 243.144 63.472 242.256 62.704C241.368 61.936 240.024 61.552 238.224 61.552H230.88L233.472 58.78V73.072ZM254.113 82V56.8H258.937L269.665 74.584H267.109L277.657 56.8H282.445L282.517 82H277.045L277.009 65.188H278.017L269.593 79.336H266.965L258.361 65.188H259.585V82H254.113ZM285.184 82L296.416 56.8H302.176L313.444 82H307.324L298.108 59.752H300.412L291.16 82H285.184ZM290.8 76.6L292.348 72.172H305.308L306.892 76.6H290.8ZM327.767 82.432C325.823 82.432 324.011 82.12 322.331 81.496C320.675 80.848 319.235 79.936 318.011 78.76C316.787 77.584 315.827 76.204 315.131 74.62C314.459 73.036 314.123 71.296 314.123 69.4C314.123 67.504 314.459 65.764 315.131 64.18C315.827 62.596 316.787 61.216 318.011 60.04C319.259 58.864 320.711 57.964 322.367 57.34C324.023 56.692 325.835 56.368 327.803 56.368C329.987 56.368 331.955 56.752 333.707 57.52C335.483 58.264 336.971 59.368 338.171 60.832L334.427 64.288C333.563 63.304 332.603 62.572 331.547 62.092C330.491 61.588 329.339 61.336 328.091 61.336C326.915 61.336 325.835 61.528 324.851 61.912C323.867 62.296 323.015 62.848 322.295 63.568C321.575 64.288 321.011 65.14 320.603 66.124C320.219 67.108 320.027 68.2 320.027 69.4C320.027 70.6 320.219 71.692 320.603 72.676C321.011 73.66 321.575 74.512 322.295 75.232C323.015 75.952 323.867 76.504 324.851 76.888C325.835 77.272 326.915 77.464 328.091 77.464C329.339 77.464 330.491 77.224 331.547 76.744C332.603 76.24 333.563 75.484 334.427 74.476L338.171 77.932C336.971 79.396 335.483 80.512 333.707 81.28C331.955 82.048 329.975 82.432 327.767 82.432ZM348.162 82V71.704L349.494 75.232L338.406 56.8H344.598L353.094 70.948H349.53L358.062 56.8H363.786L352.698 75.232L353.994 71.704V82H348.162Z" fill="#003F8C"/>
<path d="M144.736 110V93.2H151.984C153.856 93.2 155.304 93.576 156.328 94.328C157.368 95.08 157.888 96.144 157.888 97.52C157.888 98.432 157.672 99.2 157.24 99.824C156.824 100.448 156.248 100.92 155.512 101.24C154.792 101.56 154 101.72 153.136 101.72L153.544 101.144C154.616 101.144 155.536 101.312 156.304 101.648C157.088 101.968 157.696 102.456 158.128 103.112C158.56 103.752 158.776 104.552 158.776 105.512C158.776 106.936 158.248 108.04 157.192 108.824C156.152 109.608 154.576 110 152.464 110H144.736ZM146.512 108.536H152.44C153.912 108.536 155.04 108.288 155.824 107.792C156.608 107.28 157 106.472 157 105.368C157 104.28 156.608 103.488 155.824 102.992C155.04 102.48 153.912 102.224 152.44 102.224H146.32V100.76H151.864C153.208 100.76 154.248 100.504 154.984 99.992C155.736 99.48 156.112 98.72 156.112 97.712C156.112 96.688 155.736 95.928 154.984 95.432C154.248 94.92 153.208 94.664 151.864 94.664H146.512V108.536ZM167.822 110.12C166.51 110.12 165.358 109.848 164.366 109.304C163.374 108.744 162.598 107.984 162.038 107.024C161.478 106.048 161.198 104.936 161.198 103.688C161.198 102.44 161.462 101.336 161.99 100.376C162.534 99.416 163.27 98.664 164.198 98.12C165.142 97.56 166.198 97.28 167.366 97.28C168.55 97.28 169.598 97.552 170.51 98.096C171.438 98.624 172.166 99.376 172.694 100.352C173.222 101.312 173.486 102.424 173.486 103.688C173.486 103.768 173.478 103.856 173.462 103.952C173.462 104.032 173.462 104.12 173.462 104.216H162.494V102.944H172.55L171.878 103.448C171.878 102.536 171.678 101.728 171.278 101.024C170.894 100.304 170.366 99.744 169.694 99.344C169.022 98.944 168.246 98.744 167.366 98.744C166.502 98.744 165.726 98.944 165.038 99.344C164.35 99.744 163.814 100.304 163.43 101.024C163.046 101.744 162.854 102.568 162.854 103.496V103.76C162.854 104.72 163.062 105.568 163.478 106.304C163.91 107.024 164.502 107.592 165.254 108.008C166.022 108.408 166.894 108.608 167.87 108.608C168.638 108.608 169.35 108.472 170.006 108.2C170.678 107.928 171.254 107.512 171.734 106.952L172.694 108.056C172.134 108.728 171.43 109.24 170.582 109.592C169.75 109.944 168.83 110.12 167.822 110.12ZM180.338 110.12C179.298 110.12 178.314 109.976 177.386 109.688C176.458 109.384 175.73 109.008 175.202 108.56L175.97 107.216C176.482 107.6 177.138 107.936 177.938 108.224C178.738 108.496 179.578 108.632 180.458 108.632C181.658 108.632 182.522 108.448 183.05 108.08C183.578 107.696 183.842 107.192 183.842 106.568C183.842 106.104 183.69 105.744 183.386 105.488C183.098 105.216 182.714 105.016 182.234 104.888C181.754 104.744 181.218 104.624 180.626 104.528C180.034 104.432 179.442 104.32 178.85 104.192C178.274 104.064 177.746 103.88 177.266 103.64C176.786 103.384 176.394 103.04 176.09 102.608C175.802 102.176 175.658 101.6 175.658 100.88C175.658 100.192 175.85 99.576 176.234 99.032C176.618 98.488 177.178 98.064 177.914 97.76C178.666 97.44 179.578 97.28 180.65 97.28C181.466 97.28 182.282 97.392 183.098 97.616C183.914 97.824 184.586 98.104 185.114 98.456L184.37 99.824C183.81 99.44 183.21 99.168 182.57 99.008C181.93 98.832 181.29 98.744 180.65 98.744C179.514 98.744 178.674 98.944 178.13 99.344C177.602 99.728 177.338 100.224 177.338 100.832C177.338 101.312 177.482 101.688 177.77 101.96C178.074 102.232 178.466 102.448 178.946 102.608C179.442 102.752 179.978 102.872 180.554 102.968C181.146 103.064 181.73 103.184 182.306 103.328C182.898 103.456 183.434 103.64 183.914 103.88C184.41 104.104 184.802 104.432 185.09 104.864C185.394 105.28 185.546 105.832 185.546 106.52C185.546 107.256 185.338 107.896 184.922 108.44C184.522 108.968 183.93 109.384 183.146 109.688C182.378 109.976 181.442 110.12 180.338 110.12ZM192.657 110.12C191.473 110.12 190.561 109.8 189.921 109.16C189.281 108.52 188.961 107.616 188.961 106.448V94.616H190.665V106.352C190.665 107.088 190.849 107.656 191.217 108.056C191.601 108.456 192.145 108.656 192.849 108.656C193.601 108.656 194.225 108.44 194.721 108.008L195.321 109.232C194.985 109.536 194.577 109.76 194.097 109.904C193.633 110.048 193.153 110.12 192.657 110.12ZM186.705 98.816V97.4H194.505V98.816H186.705ZM205.064 110V93.2H206.84V110H205.064ZM218.378 97.28C219.402 97.28 220.298 97.48 221.066 97.88C221.85 98.264 222.458 98.856 222.89 99.656C223.338 100.456 223.562 101.464 223.562 102.68V110H221.858V102.848C221.858 101.52 221.522 100.52 220.85 99.848C220.194 99.16 219.266 98.816 218.066 98.816C217.17 98.816 216.386 99 215.714 99.368C215.058 99.72 214.546 100.24 214.178 100.928C213.826 101.6 213.65 102.416 213.65 103.376V110H211.946V97.4H213.578V100.856L213.314 100.208C213.714 99.296 214.354 98.584 215.234 98.072C216.114 97.544 217.162 97.28 218.378 97.28ZM238.07 110V94.736H232.166V93.2H245.75V94.736H239.846V110H238.07ZM252.051 110.12C250.835 110.12 249.739 109.848 248.763 109.304C247.803 108.744 247.043 107.984 246.483 107.024C245.923 106.048 245.643 104.936 245.643 103.688C245.643 102.424 245.923 101.312 246.483 100.352C247.043 99.392 247.803 98.64 248.763 98.096C249.723 97.552 250.819 97.28 252.051 97.28C253.299 97.28 254.403 97.552 255.363 98.096C256.339 98.64 257.099 99.392 257.643 100.352C258.203 101.312 258.483 102.424 258.483 103.688C258.483 104.936 258.203 106.048 257.643 107.024C257.099 107.984 256.339 108.744 255.363 109.304C254.387 109.848 253.283 110.12 252.051 110.12ZM252.051 108.608C252.963 108.608 253.771 108.408 254.475 108.008C255.179 107.592 255.731 107.016 256.131 106.28C256.547 105.528 256.755 104.664 256.755 103.688C256.755 102.696 256.547 101.832 256.131 101.096C255.731 100.36 255.179 99.792 254.475 99.392C253.771 98.976 252.971 98.768 252.075 98.768C251.179 98.768 250.379 98.976 249.675 99.392C248.971 99.792 248.411 100.36 247.995 101.096C247.579 101.832 247.371 102.696 247.371 103.688C247.371 104.664 247.579 105.528 247.995 106.28C248.411 107.016 248.971 107.592 249.675 108.008C250.379 108.408 251.171 108.608 252.051 108.608ZM264.178 110L259.426 97.4H261.058L265.378 109.088H264.634L269.074 97.4H270.538L274.93 109.088H274.186L278.578 97.4H280.138L275.362 110H273.754L269.53 99.008H270.034L265.786 110H264.178ZM289.136 97.28C290.16 97.28 291.056 97.48 291.824 97.88C292.608 98.264 293.216 98.856 293.648 99.656C294.096 100.456 294.32 101.464 294.32 102.68V110H292.616V102.848C292.616 101.52 292.28 100.52 291.608 99.848C290.952 99.16 290.024 98.816 288.824 98.816C287.928 98.816 287.144 99 286.472 99.368C285.816 99.72 285.304 100.24 284.936 100.928C284.584 101.6 284.408 102.416 284.408 103.376V110H282.704V97.4H284.336V100.856L284.072 100.208C284.472 99.296 285.112 98.584 285.992 98.072C286.872 97.544 287.92 97.28 289.136 97.28Z" fill="#003F8C"/>
</svg>
