<svg width="160" height="56" viewBox="0 0 160 56" fill="none" xmlns="http://www.w3.org/2000/svg">
<path d="M5.18709 7.03033C5.18709 8.47064 4.08314 9.67192 2.59478 9.67192C1.15447 9.67192 0 8.47064 0 7.03033V6.02248C0 4.58218 1.15447 3.43018 2.59478 3.43018C4.08314 3.43018 5.18709 4.58341 5.18709 6.02248V7.03033ZM5.18709 15.7239V34.4504C5.18709 35.8907 4.08314 37.0439 2.59478 37.0439C1.15447 37.0439 0 35.8895 0 34.4504V15.7239C0 14.1851 1.15447 13.0799 2.59478 13.0799C4.08191 13.0799 5.18709 14.1838 5.18709 15.7239Z" fill="#003F8C"/>
<path d="M31.1666 23.0217V34.4986C31.1666 35.8896 30.0615 37.0416 28.6692 37.0416C27.3262 37.0416 26.1249 35.8884 26.1249 34.4986V23.0217C26.1249 20.3321 23.8678 18.171 21.1313 18.171C18.4417 18.171 16.3299 20.3321 16.3299 23.0217V34.4986C16.3299 34.6428 16.3299 34.7857 16.2338 34.9779C15.9935 36.1311 14.9376 37.0429 13.6883 37.0429C12.248 37.0429 11.1428 35.8896 11.1428 34.4998V23.023V15.5787C11.1428 14.1852 12.248 13.0344 13.6883 13.0344C14.6973 13.0344 15.6079 13.6123 16.0403 14.5216C17.4819 13.6123 19.2585 13.0344 21.1313 13.0344C26.6991 13.0332 31.1666 17.5944 31.1666 23.0217Z" fill="#003F8C"/>
<path d="M59.5669 34.4528C59.5669 35.8439 58.4149 37.0451 56.9746 37.0451C55.6772 37.0451 54.6681 36.1322 54.4304 34.9789C52.6044 36.2295 50.2992 37.0451 47.8991 37.0451C41.4171 37.0451 36.23 31.5698 36.23 25.089C36.23 18.5096 41.4171 13.0343 47.8991 13.0343C50.2523 13.0343 52.5576 13.8018 54.3343 15.0536V6.0237C54.3343 4.63145 55.4862 3.4314 56.9758 3.4314C58.4161 3.4314 59.5681 4.63268 59.5681 6.0237V25.0372V25.0878L59.5669 34.4528ZM47.8978 18.2669C46.1692 18.2669 44.5848 18.9877 43.3847 20.237C42.1834 21.4383 41.4626 23.1657 41.4626 25.0878C41.4626 26.9125 42.1822 28.6399 43.3847 29.8411C44.5848 31.088 46.1692 31.8088 47.8978 31.8088C49.6745 31.8088 51.2109 31.088 52.4122 29.8411C53.6135 28.6386 54.3343 26.9112 54.3343 25.0878C54.3343 23.1657 53.6135 21.4383 52.4122 20.237C51.2121 18.9877 49.6757 18.2669 47.8978 18.2669Z" fill="#003F8C"/>
<path d="M71.5972 7.03033C71.5972 8.47064 70.492 9.67192 69.0037 9.67192C67.5634 9.67192 66.4114 8.47064 66.4114 7.03033V6.02248C66.4114 4.58218 67.5646 3.43018 69.0037 3.43018C70.492 3.43018 71.5972 4.58341 71.5972 6.02248V7.03033ZM71.5972 15.7239V34.4504C71.5972 35.8907 70.492 37.0439 69.0037 37.0439C67.5634 37.0439 66.4114 35.8895 66.4114 34.4504V15.7239C66.4114 14.1851 67.5646 13.0799 69.0037 13.0799C70.492 13.0799 71.5972 14.1838 71.5972 15.7239Z" fill="#003F8C"/>
<path d="M77.5503 25.0879C77.5503 18.4125 83.1206 13.0813 89.748 13.0332C92.6286 13.0332 95.3194 14.0903 97.382 15.676C98.4884 16.5385 98.6793 18.1722 97.913 19.2294C96.952 20.3826 95.4143 20.5748 94.3104 19.7099C93.0623 18.7994 91.5246 18.1735 89.748 18.1735C85.8595 18.1735 82.6413 21.3917 82.6413 25.0892C82.6413 28.7867 85.8595 31.9544 89.748 31.9544C91.4766 31.9544 93.0623 31.3309 94.3104 30.4167C95.3675 29.6023 96.952 29.792 97.913 30.9453C98.6793 32.0024 98.4884 33.5388 97.382 34.5011C95.3194 35.9882 92.6286 37.0453 89.748 37.0453C83.1218 37.0441 77.5503 31.6673 77.5503 25.0879Z" fill="#003F8C"/>
<path d="M109.516 7.03033C109.516 8.47064 108.412 9.67192 106.924 9.67192C105.484 9.67192 104.33 8.47064 104.33 7.03033V6.02248C104.33 4.58218 105.484 3.43018 106.924 3.43018C108.412 3.43018 109.516 4.58341 109.516 6.02248V7.03033ZM109.516 15.7239V34.4504C109.516 35.8907 108.412 37.0439 106.924 37.0439C105.484 37.0439 104.33 35.8895 104.33 34.4504V15.7239C104.33 14.1851 105.484 13.0799 106.924 13.0799C108.411 13.0799 109.516 14.1838 109.516 15.7239Z" fill="#003F8C"/>
<path d="M130.73 27.3877C129.725 27.3877 128.92 28.159 128.92 29.2001C128.92 30.2055 129.725 31.0088 130.73 31.0088H131.434C132.44 31.0088 133.278 30.2067 133.278 29.2001C133.278 28.159 132.441 27.3877 131.434 27.3877H130.73ZM135.658 29.1976C135.658 30.203 136.43 31.0088 137.503 31.0088H150.579C151.582 31.0088 152.389 30.2042 152.389 29.1976C152.389 28.1577 151.583 27.3877 150.579 27.3877H137.503C136.43 27.3877 135.658 28.159 135.658 29.1976Z" fill="#003F8C"/>
<path d="M150.577 31.2409H137.502C136.318 31.2409 135.425 30.3636 135.425 29.1981C135.425 28.0165 136.297 27.1565 137.502 27.1565H150.577C151.723 27.1565 152.621 28.0547 152.621 29.1981C152.621 30.3267 151.706 31.2409 150.577 31.2409ZM137.503 27.6222C136.571 27.6222 135.892 28.2851 135.892 29.1981C135.892 30.0975 136.584 30.7751 137.503 30.7751H150.579C151.451 30.7751 152.155 30.0679 152.155 29.1981C152.155 28.2999 151.478 27.6222 150.579 27.6222H137.503ZM131.435 31.2409H130.731C129.604 31.2409 128.688 30.3267 128.688 29.1981C128.688 28.0535 129.585 27.1565 130.731 27.1565H131.435C132.6 27.1565 133.511 28.0547 133.511 29.1981C133.511 30.3267 132.579 31.2409 131.435 31.2409ZM130.729 27.6222C129.831 27.6222 129.153 28.2999 129.153 29.1981C129.153 30.0704 129.859 30.7751 130.729 30.7751H131.433C132.322 30.7751 133.046 30.0679 133.046 29.1981C133.046 28.3147 132.338 27.6222 131.433 27.6222H130.729Z" fill="#003F8C"/>
<path d="M130.73 10.6614C129.725 10.6614 128.92 11.4326 128.92 12.4713C128.92 13.4791 129.725 14.2812 130.73 14.2812H131.434C132.44 14.2812 133.278 13.4804 133.278 12.4713C133.278 11.4326 132.441 10.6614 131.434 10.6614H130.73ZM135.658 12.4713C135.658 13.4791 136.43 14.2812 137.503 14.2812H150.579C151.582 14.2812 152.389 13.4804 152.389 12.4713C152.389 11.4326 151.583 10.6614 150.579 10.6614H137.503C136.43 10.6614 135.658 11.4326 135.658 12.4713Z" fill="#003F8C"/>
<path d="M150.577 14.515H137.502C136.318 14.515 135.425 13.6365 135.425 12.471C135.425 11.2894 136.297 10.4307 137.502 10.4307H150.577C151.723 10.4307 152.621 11.3276 152.621 12.471C152.621 13.5996 151.706 14.515 150.577 14.515ZM137.503 10.8964C136.571 10.8964 135.892 11.558 135.892 12.471C135.892 13.3716 136.584 14.0493 137.503 14.0493H150.579C151.451 14.0493 152.155 13.3421 152.155 12.471C152.155 11.5728 151.478 10.8964 150.579 10.8964H137.503ZM131.435 14.515H130.731C129.604 14.515 128.688 13.5996 128.688 12.471C128.688 11.3264 129.585 10.4307 130.731 10.4307H131.435C132.6 10.4307 133.511 11.3276 133.511 12.471C133.511 13.5996 132.579 14.515 131.435 14.515ZM130.729 10.8964C129.831 10.8964 129.153 11.5728 129.153 12.471C129.153 13.3421 129.859 14.0493 130.729 14.0493H131.433C132.322 14.0493 133.046 13.3421 133.046 12.471C133.046 11.5876 132.338 10.8964 131.433 10.8964H130.729Z" fill="#003F8C"/>
<path d="M150.095 40.8545H131.212C123.375 40.8545 121.306 34.3762 121.306 30.9485V9.90572C121.306 2.07212 127.785 -0.000244141 131.212 -0.000244141H150.095C157.93 -0.000244141 160 6.48052 160 9.90572V30.9485C160 38.7833 153.522 40.8545 150.095 40.8545ZM131.212 3.48655C130.563 3.49272 124.794 3.72681 124.794 9.90572V30.9485C124.799 31.5978 125.033 37.3677 131.212 37.3677H150.089C150.759 37.3603 156.515 37.12 156.515 30.9485V9.90572C156.508 9.25641 156.273 3.48655 150.095 3.48655H131.212Z" fill="#003F8C"/>
<path d="M150.58 22.6135C151.583 22.6135 152.39 21.8422 152.39 20.8024C152.39 19.7958 151.584 18.9924 150.58 18.9924H149.875C148.869 18.9924 148.032 19.7945 148.032 20.8024C148.032 21.8422 148.869 22.6135 149.875 22.6135H150.58ZM145.649 20.8036C145.649 19.797 144.879 18.9937 143.807 18.9937H130.731C129.725 18.9937 128.92 19.7958 128.92 20.8036C128.92 21.8435 129.725 22.6148 130.731 22.6148H143.807C144.879 22.6135 145.649 21.8422 145.649 20.8036Z" fill="#003F8C"/>
<path d="M150.58 22.7814H149.875C148.747 22.7814 147.865 21.9128 147.865 20.8039C147.865 19.7135 148.765 18.8276 149.875 18.8276H150.58C151.67 18.8276 152.556 19.7147 152.556 20.8039C152.555 21.9128 151.688 22.7814 150.58 22.7814ZM149.875 19.1603C148.949 19.1603 148.198 19.8995 148.198 20.8039C148.198 21.7255 148.935 22.4487 149.875 22.4487H150.58C151.516 22.4487 152.222 21.7403 152.222 20.8039C152.222 19.8995 151.484 19.1603 150.58 19.1603H149.875ZM143.806 22.7814H130.731C129.622 22.7814 128.754 21.9128 128.754 20.8039C128.754 19.7135 129.641 18.8276 130.731 18.8276H143.806C144.953 18.8276 145.818 19.6778 145.818 20.8039C145.818 21.9497 144.973 22.7814 143.806 22.7814ZM130.731 19.1603C129.81 19.1603 129.088 19.8835 129.088 20.8039C129.088 21.7403 129.794 22.4487 130.731 22.4487H143.806C144.778 22.4487 145.483 21.7563 145.483 20.8039C145.483 19.8675 144.762 19.1603 143.806 19.1603H130.731Z" fill="#003F8C"/>
<path d="M1.128 52.8547V44.4547H4.584C5.328 44.4547 5.964 44.5747 6.492 44.8147C7.028 45.0547 7.44 45.3987 7.728 45.8467C8.016 46.2947 8.16 46.8267 8.16 47.4427C8.16 48.0587 8.016 48.5907 7.728 49.0387C7.44 49.4867 7.028 49.8307 6.492 50.0707C5.964 50.3107 5.328 50.4307 4.584 50.4307H1.992L2.688 49.6987V52.8547H1.128ZM2.688 49.8667L1.992 49.1107H4.512C5.2 49.1107 5.716 48.9667 6.06 48.6787C6.412 48.3827 6.588 47.9707 6.588 47.4427C6.588 46.9067 6.412 46.4947 6.06 46.2067C5.716 45.9187 5.2 45.7747 4.512 45.7747H1.992L2.688 45.0067V49.8667ZM12.4304 52.9387C11.7744 52.9387 11.1904 52.7987 10.6784 52.5187C10.1664 52.2307 9.76241 51.8387 9.46641 51.3427C9.17041 50.8467 9.02241 50.2827 9.02241 49.6507C9.02241 49.0107 9.17041 48.4467 9.46641 47.9587C9.76241 47.4627 10.1664 47.0747 10.6784 46.7947C11.1904 46.5147 11.7744 46.3747 12.4304 46.3747C13.0944 46.3747 13.6824 46.5147 14.1944 46.7947C14.7144 47.0747 15.1184 47.4587 15.4064 47.9467C15.7024 48.4347 15.8504 49.0027 15.8504 49.6507C15.8504 50.2827 15.7024 50.8467 15.4064 51.3427C15.1184 51.8387 14.7144 52.2307 14.1944 52.5187C13.6824 52.7987 13.0944 52.9387 12.4304 52.9387ZM12.4304 51.6547C12.7984 51.6547 13.1264 51.5747 13.4144 51.4147C13.7024 51.2547 13.9264 51.0227 14.0864 50.7187C14.2544 50.4147 14.3384 50.0587 14.3384 49.6507C14.3384 49.2347 14.2544 48.8787 14.0864 48.5827C13.9264 48.2787 13.7024 48.0467 13.4144 47.8867C13.1264 47.7267 12.8024 47.6467 12.4424 47.6467C12.0744 47.6467 11.7464 47.7267 11.4584 47.8867C11.1784 48.0467 10.9544 48.2787 10.7864 48.5827C10.6184 48.8787 10.5344 49.2347 10.5344 49.6507C10.5344 50.0587 10.6184 50.4147 10.7864 50.7187C10.9544 51.0227 11.1784 51.2547 11.4584 51.4147C11.7464 51.5747 12.0704 51.6547 12.4304 51.6547ZM18.525 52.8547L16.173 46.4467H17.589L19.605 52.0987H18.933L21.045 46.4467H22.305L24.357 52.0987H23.697L25.773 46.4467H27.105L24.741 52.8547H23.301L21.429 47.8507H21.873L19.965 52.8547H18.525ZM30.9726 52.9387C30.2606 52.9387 29.6366 52.7987 29.1006 52.5187C28.5726 52.2307 28.1606 51.8387 27.8646 51.3427C27.5766 50.8467 27.4326 50.2827 27.4326 49.6507C27.4326 49.0107 27.5726 48.4467 27.8526 47.9587C28.1406 47.4627 28.5326 47.0747 29.0286 46.7947C29.5326 46.5147 30.1046 46.3747 30.7446 46.3747C31.3686 46.3747 31.9246 46.5107 32.4126 46.7827C32.9006 47.0547 33.2846 47.4387 33.5646 47.9347C33.8446 48.4307 33.9846 49.0147 33.9846 49.6867C33.9846 49.7507 33.9806 49.8227 33.9726 49.9027C33.9726 49.9827 33.9686 50.0587 33.9606 50.1307H28.6206V49.1347H33.1686L32.5806 49.4467C32.5886 49.0787 32.5126 48.7547 32.3526 48.4747C32.1926 48.1947 31.9726 47.9747 31.6926 47.8147C31.4206 47.6547 31.1046 47.5747 30.7446 47.5747C30.3766 47.5747 30.0526 47.6547 29.7726 47.8147C29.5006 47.9747 29.2846 48.1987 29.1246 48.4867C28.9726 48.7667 28.8966 49.0987 28.8966 49.4827V49.7227C28.8966 50.1067 28.9846 50.4467 29.1606 50.7427C29.3366 51.0387 29.5846 51.2667 29.9046 51.4267C30.2246 51.5867 30.5926 51.6667 31.0086 51.6667C31.3686 51.6667 31.6926 51.6107 31.9806 51.4987C32.2686 51.3867 32.5246 51.2107 32.7486 50.9707L33.5526 51.8947C33.2646 52.2307 32.9006 52.4907 32.4606 52.6747C32.0286 52.8507 31.5326 52.9387 30.9726 52.9387ZM35.4254 52.8547V46.4467H36.8534V48.2107L36.6854 47.6947C36.8774 47.2627 37.1774 46.9347 37.5854 46.7107C38.0014 46.4867 38.5174 46.3747 39.1334 46.3747V47.8027C39.0694 47.7867 39.0094 47.7787 38.9534 47.7787C38.8974 47.7707 38.8414 47.7667 38.7854 47.7667C38.2174 47.7667 37.7654 47.9347 37.4294 48.2707C37.0934 48.5987 36.9254 49.0907 36.9254 49.7467V52.8547H35.4254ZM43.3593 52.9387C42.6473 52.9387 42.0233 52.7987 41.4873 52.5187C40.9593 52.2307 40.5473 51.8387 40.2513 51.3427C39.9633 50.8467 39.8193 50.2827 39.8193 49.6507C39.8193 49.0107 39.9593 48.4467 40.2393 47.9587C40.5273 47.4627 40.9193 47.0747 41.4153 46.7947C41.9193 46.5147 42.4913 46.3747 43.1313 46.3747C43.7553 46.3747 44.3113 46.5107 44.7993 46.7827C45.2873 47.0547 45.6713 47.4387 45.9513 47.9347C46.2313 48.4307 46.3713 49.0147 46.3713 49.6867C46.3713 49.7507 46.3673 49.8227 46.3593 49.9027C46.3593 49.9827 46.3553 50.0587 46.3473 50.1307H41.0073V49.1347H45.5553L44.9673 49.4467C44.9753 49.0787 44.8993 48.7547 44.7393 48.4747C44.5793 48.1947 44.3593 47.9747 44.0793 47.8147C43.8073 47.6547 43.4913 47.5747 43.1313 47.5747C42.7633 47.5747 42.4393 47.6547 42.1593 47.8147C41.8873 47.9747 41.6713 48.1987 41.5113 48.4867C41.3593 48.7667 41.2833 49.0987 41.2833 49.4827V49.7227C41.2833 50.1067 41.3713 50.4467 41.5473 50.7427C41.7233 51.0387 41.9713 51.2667 42.2913 51.4267C42.6113 51.5867 42.9793 51.6667 43.3953 51.6667C43.7553 51.6667 44.0793 51.6107 44.3673 51.4987C44.6553 51.3867 44.9113 51.2107 45.1353 50.9707L45.9393 51.8947C45.6513 52.2307 45.2873 52.4907 44.8473 52.6747C44.4153 52.8507 43.9193 52.9387 43.3593 52.9387ZM50.5241 52.9387C49.9081 52.9387 49.3521 52.8027 48.8561 52.5307C48.3681 52.2507 47.9841 51.8667 47.7041 51.3787C47.4241 50.8907 47.2841 50.3147 47.2841 49.6507C47.2841 48.9867 47.4241 48.4107 47.7041 47.9227C47.9841 47.4347 48.3681 47.0547 48.8561 46.7827C49.3521 46.5107 49.9081 46.3747 50.5241 46.3747C51.0601 46.3747 51.5401 46.4947 51.9641 46.7347C52.3881 46.9667 52.7241 47.3227 52.9721 47.8027C53.2201 48.2827 53.3441 48.8987 53.3441 49.6507C53.3441 50.3947 53.2241 51.0107 52.9841 51.4987C52.7441 51.9787 52.4121 52.3387 51.9881 52.5787C51.5641 52.8187 51.0761 52.9387 50.5241 52.9387ZM50.7041 51.6547C51.0641 51.6547 51.3841 51.5747 51.6641 51.4147C51.9521 51.2547 52.1801 51.0227 52.3481 50.7187C52.5241 50.4147 52.6121 50.0587 52.6121 49.6507C52.6121 49.2347 52.5241 48.8787 52.3481 48.5827C52.1801 48.2787 51.9521 48.0467 51.6641 47.8867C51.3841 47.7267 51.0641 47.6467 50.7041 47.6467C50.3441 47.6467 50.0201 47.7267 49.7321 47.8867C49.4521 48.0467 49.2241 48.2787 49.0481 48.5827C48.8801 48.8787 48.7961 49.2347 48.7961 49.6507C48.7961 50.0587 48.8801 50.4147 49.0481 50.7187C49.2241 51.0227 49.4521 51.2547 49.7321 51.4147C50.0201 51.5747 50.3441 51.6547 50.7041 51.6547ZM52.6481 52.8547V51.3427L52.7081 49.6387L52.5881 47.9347V43.9507H54.0761V52.8547H52.6481ZM62.9188 52.9387C62.3748 52.9387 61.8908 52.8187 61.4668 52.5787C61.0428 52.3387 60.7068 51.9787 60.4588 51.4987C60.2188 51.0107 60.0988 50.3947 60.0988 49.6507C60.0988 48.8987 60.2228 48.2827 60.4708 47.8027C60.7268 47.3227 61.0668 46.9667 61.4908 46.7347C61.9228 46.4947 62.3988 46.3747 62.9188 46.3747C63.5508 46.3747 64.1068 46.5107 64.5868 46.7827C65.0748 47.0547 65.4588 47.4347 65.7388 47.9227C66.0268 48.4107 66.1708 48.9867 66.1708 49.6507C66.1708 50.3147 66.0268 50.8907 65.7388 51.3787C65.4588 51.8667 65.0748 52.2507 64.5868 52.5307C64.1068 52.8027 63.5508 52.9387 62.9188 52.9387ZM59.3668 52.8547V43.9507H60.8668V47.9347L60.7468 49.6387L60.7948 51.3427V52.8547H59.3668ZM62.7508 51.6547C63.1108 51.6547 63.4308 51.5747 63.7108 51.4147C63.9988 51.2547 64.2268 51.0227 64.3948 50.7187C64.5628 50.4147 64.6468 50.0587 64.6468 49.6507C64.6468 49.2347 64.5628 48.8787 64.3948 48.5827C64.2268 48.2787 63.9988 48.0467 63.7108 47.8867C63.4308 47.7267 63.1108 47.6467 62.7508 47.6467C62.3908 47.6467 62.0668 47.7267 61.7788 47.8867C61.4908 48.0467 61.2628 48.2787 61.0948 48.5827C60.9268 48.8787 60.8428 49.2347 60.8428 49.6507C60.8428 50.0587 60.9268 50.4147 61.0948 50.7187C61.2628 51.0227 61.4908 51.2547 61.7788 51.4147C62.0668 51.5747 62.3908 51.6547 62.7508 51.6547ZM67.9456 55.2667C67.6336 55.2667 67.3216 55.2147 67.0096 55.1107C66.6976 55.0067 66.4376 54.8627 66.2296 54.6787L66.8296 53.5747C66.9816 53.7107 67.1536 53.8187 67.3456 53.8987C67.5376 53.9787 67.7336 54.0187 67.9336 54.0187C68.2056 54.0187 68.4256 53.9507 68.5936 53.8147C68.7616 53.6787 68.9176 53.4507 69.0616 53.1307L69.4336 52.2907L69.5536 52.1107L71.9776 46.4467H73.4176L70.4176 53.3707C70.2176 53.8507 69.9936 54.2307 69.7456 54.5107C69.5056 54.7907 69.2336 54.9867 68.9296 55.0987C68.6336 55.2107 68.3056 55.2667 67.9456 55.2667ZM69.2656 53.0827L66.3736 46.4467H67.9336L70.2856 51.9787L69.2656 53.0827Z" fill="#003F8C"/>
</svg>
